<mxfile host="app.diagrams.net" modified="2022-03-15T07:13:59.714Z" agent="5.0 (Macintosh; Intel Mac OS X 10_15_7) AppleWebKit/537.36 (KHTML, like Gecko) Chrome/99.0.4844.51 Safari/537.36" etag="Jy8GGaYZH_ZjdG8y_L9S" version="17.1.2" type="github">
  <diagram id="CeXCkK3AHREDX6KRDhS-" name="Page-1">
    <mxGraphModel dx="2013" dy="732" grid="1" gridSize="10" guides="1" tooltips="1" connect="1" arrows="1" fold="1" page="1" pageScale="1" pageWidth="827" pageHeight="1169" math="0" shadow="0">
      <root>
        <mxCell id="0" />
        <mxCell id="1" parent="0" />
        <mxCell id="bEocavp-VDXraB0x9Xeh-3" value="" style="edgeStyle=orthogonalEdgeStyle;rounded=0;orthogonalLoop=1;jettySize=auto;html=1;" parent="1" source="bEocavp-VDXraB0x9Xeh-1" target="bEocavp-VDXraB0x9Xeh-2" edge="1">
          <mxGeometry relative="1" as="geometry" />
        </mxCell>
        <mxCell id="bEocavp-VDXraB0x9Xeh-4" value="&lt;span style=&quot;font-size: 12px ; background-color: rgb(248 , 249 , 250)&quot;&gt;this.scanner.scan(basePackages);&lt;/span&gt;" style="edgeLabel;html=1;align=center;verticalAlign=middle;resizable=0;points=[];" parent="bEocavp-VDXraB0x9Xeh-3" vertex="1" connectable="0">
          <mxGeometry x="-0.075" y="-1" relative="1" as="geometry">
            <mxPoint as="offset" />
          </mxGeometry>
        </mxCell>
        <mxCell id="bEocavp-VDXraB0x9Xeh-1" value="scan" style="rounded=0;whiteSpace=wrap;html=1;" parent="1" vertex="1">
          <mxGeometry x="112.5" y="200" width="120" height="60" as="geometry" />
        </mxCell>
        <mxCell id="bEocavp-VDXraB0x9Xeh-6" value="" style="edgeStyle=orthogonalEdgeStyle;rounded=0;orthogonalLoop=1;jettySize=auto;html=1;" parent="1" source="bEocavp-VDXraB0x9Xeh-2" target="bEocavp-VDXraB0x9Xeh-5" edge="1">
          <mxGeometry relative="1" as="geometry" />
        </mxCell>
        <mxCell id="bEocavp-VDXraB0x9Xeh-7" value="for (String basePackage : basePackages)" style="edgeLabel;html=1;align=center;verticalAlign=middle;resizable=0;points=[];" parent="bEocavp-VDXraB0x9Xeh-6" vertex="1" connectable="0">
          <mxGeometry x="-0.125" y="-1" relative="1" as="geometry">
            <mxPoint as="offset" />
          </mxGeometry>
        </mxCell>
        <mxCell id="bEocavp-VDXraB0x9Xeh-2" value="doScan(basePackages);" style="rounded=0;whiteSpace=wrap;html=1;" parent="1" vertex="1">
          <mxGeometry x="82.5" y="330" width="180" height="60" as="geometry" />
        </mxCell>
        <mxCell id="bEocavp-VDXraB0x9Xeh-9" value="" style="edgeStyle=orthogonalEdgeStyle;rounded=0;orthogonalLoop=1;jettySize=auto;html=1;exitX=1;exitY=0.5;exitDx=0;exitDy=0;" parent="1" source="bEocavp-VDXraB0x9Xeh-5" target="bEocavp-VDXraB0x9Xeh-8" edge="1">
          <mxGeometry relative="1" as="geometry">
            <mxPoint x="447.5" y="490" as="sourcePoint" />
          </mxGeometry>
        </mxCell>
        <mxCell id="bEocavp-VDXraB0x9Xeh-43" value="" style="edgeStyle=orthogonalEdgeStyle;rounded=0;orthogonalLoop=1;jettySize=auto;html=1;" parent="1" source="bEocavp-VDXraB0x9Xeh-5" target="bEocavp-VDXraB0x9Xeh-42" edge="1">
          <mxGeometry relative="1" as="geometry" />
        </mxCell>
        <mxCell id="bEocavp-VDXraB0x9Xeh-44" value="for (BeanDefinition candidate : candidates)" style="edgeLabel;html=1;align=center;verticalAlign=middle;resizable=0;points=[];" parent="bEocavp-VDXraB0x9Xeh-43" vertex="1" connectable="0">
          <mxGeometry x="-0.1023" y="1" relative="1" as="geometry">
            <mxPoint as="offset" />
          </mxGeometry>
        </mxCell>
        <mxCell id="bEocavp-VDXraB0x9Xeh-5" value="Set&amp;lt;BeanDefinition&amp;gt; candidates = findCandidateComponents(basePackage);" style="whiteSpace=wrap;html=1;rounded=0;" parent="1" vertex="1">
          <mxGeometry x="52.5" y="460" width="240" height="60" as="geometry" />
        </mxCell>
        <mxCell id="bEocavp-VDXraB0x9Xeh-11" value="" style="edgeStyle=orthogonalEdgeStyle;rounded=0;orthogonalLoop=1;jettySize=auto;html=1;" parent="1" source="bEocavp-VDXraB0x9Xeh-8" target="bEocavp-VDXraB0x9Xeh-10" edge="1">
          <mxGeometry relative="1" as="geometry" />
        </mxCell>
        <mxCell id="bEocavp-VDXraB0x9Xeh-12" value="是" style="edgeLabel;html=1;align=center;verticalAlign=middle;resizable=0;points=[];" parent="bEocavp-VDXraB0x9Xeh-11" vertex="1" connectable="0">
          <mxGeometry x="-0.232" y="-2" relative="1" as="geometry">
            <mxPoint as="offset" />
          </mxGeometry>
        </mxCell>
        <mxCell id="bEocavp-VDXraB0x9Xeh-14" value="" style="edgeStyle=orthogonalEdgeStyle;rounded=0;orthogonalLoop=1;jettySize=auto;html=1;" parent="1" source="bEocavp-VDXraB0x9Xeh-8" target="bEocavp-VDXraB0x9Xeh-13" edge="1">
          <mxGeometry relative="1" as="geometry" />
        </mxCell>
        <mxCell id="bEocavp-VDXraB0x9Xeh-15" value="否" style="edgeLabel;html=1;align=center;verticalAlign=middle;resizable=0;points=[];" parent="bEocavp-VDXraB0x9Xeh-14" vertex="1" connectable="0">
          <mxGeometry x="-0.0667" y="1" relative="1" as="geometry">
            <mxPoint as="offset" />
          </mxGeometry>
        </mxCell>
        <mxCell id="bEocavp-VDXraB0x9Xeh-8" value="是否使用快捷注册" style="rhombus;whiteSpace=wrap;html=1;rounded=0;fillColor=#fff2cc;strokeColor=#d6b656;" parent="1" vertex="1">
          <mxGeometry x="516.25" y="450" width="152.5" height="80" as="geometry" />
        </mxCell>
        <mxCell id="bEocavp-VDXraB0x9Xeh-40" value="" style="edgeStyle=orthogonalEdgeStyle;rounded=0;orthogonalLoop=1;jettySize=auto;html=1;" parent="1" source="bEocavp-VDXraB0x9Xeh-10" target="bEocavp-VDXraB0x9Xeh-39" edge="1">
          <mxGeometry relative="1" as="geometry" />
        </mxCell>
        <mxCell id="bEocavp-VDXraB0x9Xeh-10" value="addCandidateComponentsFromIndex(this.componentsIndex, basePackage)" style="whiteSpace=wrap;html=1;rounded=0;" parent="1" vertex="1">
          <mxGeometry x="795" y="460" width="440" height="60" as="geometry" />
        </mxCell>
        <mxCell id="bEocavp-VDXraB0x9Xeh-17" value="" style="edgeStyle=orthogonalEdgeStyle;rounded=0;orthogonalLoop=1;jettySize=auto;html=1;" parent="1" source="bEocavp-VDXraB0x9Xeh-13" target="bEocavp-VDXraB0x9Xeh-16" edge="1">
          <mxGeometry relative="1" as="geometry" />
        </mxCell>
        <mxCell id="bEocavp-VDXraB0x9Xeh-13" value="scanCandidateComponents(basePackage);" style="whiteSpace=wrap;html=1;rounded=0;" parent="1" vertex="1">
          <mxGeometry x="470" y="585" width="245" height="60" as="geometry" />
        </mxCell>
        <mxCell id="bEocavp-VDXraB0x9Xeh-19" value="" style="edgeStyle=orthogonalEdgeStyle;rounded=0;orthogonalLoop=1;jettySize=auto;html=1;" parent="1" source="bEocavp-VDXraB0x9Xeh-16" target="bEocavp-VDXraB0x9Xeh-18" edge="1">
          <mxGeometry relative="1" as="geometry" />
        </mxCell>
        <mxCell id="bEocavp-VDXraB0x9Xeh-20" value="for (Resource resource : resources)" style="edgeLabel;html=1;align=center;verticalAlign=middle;resizable=0;points=[];" parent="bEocavp-VDXraB0x9Xeh-19" vertex="1" connectable="0">
          <mxGeometry x="-0.0545" y="3" relative="1" as="geometry">
            <mxPoint as="offset" />
          </mxGeometry>
        </mxCell>
        <mxCell id="bEocavp-VDXraB0x9Xeh-16" value="Resource[] resources = getResourcePatternResolver().getResources(packageSearchPath);" style="whiteSpace=wrap;html=1;rounded=0;" parent="1" vertex="1">
          <mxGeometry x="400" y="690" width="385" height="65" as="geometry" />
        </mxCell>
        <mxCell id="bEocavp-VDXraB0x9Xeh-22" value="" style="edgeStyle=orthogonalEdgeStyle;rounded=0;orthogonalLoop=1;jettySize=auto;html=1;" parent="1" source="bEocavp-VDXraB0x9Xeh-18" target="bEocavp-VDXraB0x9Xeh-21" edge="1">
          <mxGeometry relative="1" as="geometry" />
        </mxCell>
        <mxCell id="bEocavp-VDXraB0x9Xeh-18" value="MetadataReader metadataReader = getMetadataReaderFactory().getMetadataReader(resource);" style="whiteSpace=wrap;html=1;rounded=0;" parent="1" vertex="1">
          <mxGeometry x="418.75" y="820" width="347.5" height="72.5" as="geometry" />
        </mxCell>
        <mxCell id="bEocavp-VDXraB0x9Xeh-24" value="" style="edgeStyle=orthogonalEdgeStyle;rounded=0;orthogonalLoop=1;jettySize=auto;html=1;" parent="1" source="bEocavp-VDXraB0x9Xeh-21" target="bEocavp-VDXraB0x9Xeh-23" edge="1">
          <mxGeometry relative="1" as="geometry" />
        </mxCell>
        <mxCell id="bEocavp-VDXraB0x9Xeh-21" value="isCandidateComponent(metadataReader)" style="rhombus;whiteSpace=wrap;html=1;rounded=0;fillColor=#fff2cc;strokeColor=#d6b656;" parent="1" vertex="1">
          <mxGeometry x="453.75" y="930" width="277.5" height="81.25" as="geometry" />
        </mxCell>
        <mxCell id="bEocavp-VDXraB0x9Xeh-26" value="" style="edgeStyle=orthogonalEdgeStyle;rounded=0;orthogonalLoop=1;jettySize=auto;html=1;" parent="1" source="bEocavp-VDXraB0x9Xeh-23" target="bEocavp-VDXraB0x9Xeh-25" edge="1">
          <mxGeometry relative="1" as="geometry" />
        </mxCell>
        <mxCell id="bEocavp-VDXraB0x9Xeh-23" value="this.excludeFilters&lt;br&gt;match" style="whiteSpace=wrap;html=1;rounded=0;" parent="1" vertex="1">
          <mxGeometry x="532.5" y="1040.005" width="120" height="60" as="geometry" />
        </mxCell>
        <mxCell id="bEocavp-VDXraB0x9Xeh-28" value="" style="edgeStyle=orthogonalEdgeStyle;rounded=0;orthogonalLoop=1;jettySize=auto;html=1;dashed=1;" parent="1" source="bEocavp-VDXraB0x9Xeh-25" target="bEocavp-VDXraB0x9Xeh-27" edge="1">
          <mxGeometry relative="1" as="geometry" />
        </mxCell>
        <mxCell id="bEocavp-VDXraB0x9Xeh-30" value="" style="edgeStyle=orthogonalEdgeStyle;rounded=0;orthogonalLoop=1;jettySize=auto;html=1;" parent="1" source="bEocavp-VDXraB0x9Xeh-25" target="bEocavp-VDXraB0x9Xeh-29" edge="1">
          <mxGeometry relative="1" as="geometry" />
        </mxCell>
        <mxCell id="bEocavp-VDXraB0x9Xeh-25" value="this.includeFilters&lt;br&gt;match" style="whiteSpace=wrap;html=1;rounded=0;" parent="1" vertex="1">
          <mxGeometry x="532.5" y="1130.005" width="120" height="60" as="geometry" />
        </mxCell>
        <mxCell id="bEocavp-VDXraB0x9Xeh-27" value="isConditionMatch(metadataReader)&lt;br&gt;是否有满足条件注解" style="whiteSpace=wrap;html=1;rounded=0;" parent="1" vertex="1">
          <mxGeometry x="732.5" y="1130.01" width="207.5" height="59.99" as="geometry" />
        </mxCell>
        <mxCell id="bEocavp-VDXraB0x9Xeh-32" value="" style="edgeStyle=orthogonalEdgeStyle;rounded=0;orthogonalLoop=1;jettySize=auto;html=1;" parent="1" source="bEocavp-VDXraB0x9Xeh-29" target="bEocavp-VDXraB0x9Xeh-31" edge="1">
          <mxGeometry relative="1" as="geometry" />
        </mxCell>
        <mxCell id="bEocavp-VDXraB0x9Xeh-29" value="ScannedGenericBeanDefinition sbd = new ScannedGenericBeanDefinition(metadataReader);" style="whiteSpace=wrap;html=1;rounded=0;" parent="1" vertex="1">
          <mxGeometry x="443.75" y="1220" width="297.5" height="70" as="geometry" />
        </mxCell>
        <mxCell id="bEocavp-VDXraB0x9Xeh-34" value="" style="edgeStyle=orthogonalEdgeStyle;rounded=0;orthogonalLoop=1;jettySize=auto;html=1;" parent="1" source="bEocavp-VDXraB0x9Xeh-31" target="bEocavp-VDXraB0x9Xeh-33" edge="1">
          <mxGeometry relative="1" as="geometry" />
        </mxCell>
        <mxCell id="bEocavp-VDXraB0x9Xeh-31" value="sbd.setSource(resource);" style="whiteSpace=wrap;html=1;rounded=0;" parent="1" vertex="1">
          <mxGeometry x="513.75" y="1320" width="157.5" height="65" as="geometry" />
        </mxCell>
        <mxCell id="bEocavp-VDXraB0x9Xeh-36" value="" style="edgeStyle=orthogonalEdgeStyle;rounded=0;orthogonalLoop=1;jettySize=auto;html=1;dashed=1;" parent="1" source="bEocavp-VDXraB0x9Xeh-33" target="bEocavp-VDXraB0x9Xeh-35" edge="1">
          <mxGeometry relative="1" as="geometry" />
        </mxCell>
        <mxCell id="bEocavp-VDXraB0x9Xeh-38" value="" style="edgeStyle=orthogonalEdgeStyle;rounded=0;orthogonalLoop=1;jettySize=auto;html=1;" parent="1" source="bEocavp-VDXraB0x9Xeh-33" target="bEocavp-VDXraB0x9Xeh-37" edge="1">
          <mxGeometry relative="1" as="geometry" />
        </mxCell>
        <mxCell id="bEocavp-VDXraB0x9Xeh-33" value="isCandidateComponent(sbd)" style="rhombus;whiteSpace=wrap;html=1;rounded=0;fillColor=#fff2cc;strokeColor=#d6b656;" parent="1" vertex="1">
          <mxGeometry x="483.75" y="1430" width="217.5" height="82.5" as="geometry" />
        </mxCell>
        <mxCell id="bEocavp-VDXraB0x9Xeh-35" value="(metadata.isIndependent() &amp;amp;&amp;amp; (metadata.isConcrete() || (metadata.isAbstract() &amp;amp;&amp;amp; metadata.hasAnnotatedMethods(Lookup.class.getName()))))&lt;br&gt;顶层类 &amp;amp;&amp;amp; （不是抽象类、非接口 || 是抽象类，但是有 lookup 方法）" style="whiteSpace=wrap;html=1;rounded=0;" parent="1" vertex="1">
          <mxGeometry x="757.5" y="1429.38" width="413.75" height="83.12" as="geometry" />
        </mxCell>
        <mxCell id="bEocavp-VDXraB0x9Xeh-37" value="candidates.add(sbd);" style="whiteSpace=wrap;html=1;rounded=0;" parent="1" vertex="1">
          <mxGeometry x="523.75" y="1550" width="137.5" height="60" as="geometry" />
        </mxCell>
        <mxCell id="bEocavp-VDXraB0x9Xeh-41" style="edgeStyle=orthogonalEdgeStyle;rounded=0;orthogonalLoop=1;jettySize=auto;html=1;exitX=0.5;exitY=1;exitDx=0;exitDy=0;entryX=1;entryY=0.5;entryDx=0;entryDy=0;" parent="1" source="bEocavp-VDXraB0x9Xeh-39" target="bEocavp-VDXraB0x9Xeh-21" edge="1">
          <mxGeometry relative="1" as="geometry" />
        </mxCell>
        <mxCell id="bEocavp-VDXraB0x9Xeh-39" value="加载 META-INF/spring.components" style="whiteSpace=wrap;html=1;rounded=0;" parent="1" vertex="1">
          <mxGeometry x="907.5" y="560" width="215" height="50" as="geometry" />
        </mxCell>
        <mxCell id="bEocavp-VDXraB0x9Xeh-46" value="" style="edgeStyle=orthogonalEdgeStyle;rounded=0;orthogonalLoop=1;jettySize=auto;html=1;" parent="1" source="bEocavp-VDXraB0x9Xeh-42" target="bEocavp-VDXraB0x9Xeh-45" edge="1">
          <mxGeometry relative="1" as="geometry" />
        </mxCell>
        <mxCell id="bEocavp-VDXraB0x9Xeh-47" value="candidate.setScope(scopeMetadata.getScopeName());" style="edgeLabel;html=1;align=center;verticalAlign=middle;resizable=0;points=[];" parent="bEocavp-VDXraB0x9Xeh-46" vertex="1" connectable="0">
          <mxGeometry x="-0.0568" relative="1" as="geometry">
            <mxPoint as="offset" />
          </mxGeometry>
        </mxCell>
        <mxCell id="bEocavp-VDXraB0x9Xeh-42" value="ScopeMetadata scopeMetadata = this.scopeMetadataResolver.resolveScopeMetadata(candidate);&lt;br&gt;解析 @Scope 注解" style="whiteSpace=wrap;html=1;rounded=0;" parent="1" vertex="1">
          <mxGeometry x="-10" y="600" width="365" height="60" as="geometry" />
        </mxCell>
        <mxCell id="bEocavp-VDXraB0x9Xeh-49" value="" style="edgeStyle=orthogonalEdgeStyle;rounded=0;orthogonalLoop=1;jettySize=auto;html=1;" parent="1" source="bEocavp-VDXraB0x9Xeh-45" target="bEocavp-VDXraB0x9Xeh-48" edge="1">
          <mxGeometry relative="1" as="geometry" />
        </mxCell>
        <mxCell id="bEocavp-VDXraB0x9Xeh-50" value="设置默认的一些 bean 定义，如 lazy，autowired-model，init-method，destroy-method" style="edgeLabel;html=1;align=center;verticalAlign=middle;resizable=0;points=[];" parent="bEocavp-VDXraB0x9Xeh-49" vertex="1" connectable="0">
          <mxGeometry x="0.0381" relative="1" as="geometry">
            <mxPoint as="offset" />
          </mxGeometry>
        </mxCell>
        <mxCell id="bEocavp-VDXraB0x9Xeh-45" value="String beanName = this.beanNameGenerator.generateBeanName(candidate, this.registry);&lt;br&gt;生成 beanName" style="whiteSpace=wrap;html=1;rounded=0;" parent="1" vertex="1">
          <mxGeometry x="-21.25" y="740" width="387.5" height="60" as="geometry" />
        </mxCell>
        <mxCell id="bEocavp-VDXraB0x9Xeh-52" value="" style="edgeStyle=orthogonalEdgeStyle;rounded=0;orthogonalLoop=1;jettySize=auto;html=1;" parent="1" source="bEocavp-VDXraB0x9Xeh-48" target="bEocavp-VDXraB0x9Xeh-51" edge="1">
          <mxGeometry relative="1" as="geometry" />
        </mxCell>
        <mxCell id="bEocavp-VDXraB0x9Xeh-53" value="获取 @Lazy，@Primary，@DependsOn、@Role、@Description 等属性" style="edgeLabel;html=1;align=center;verticalAlign=middle;resizable=0;points=[];" parent="bEocavp-VDXraB0x9Xeh-52" vertex="1" connectable="0">
          <mxGeometry x="-0.1023" relative="1" as="geometry">
            <mxPoint as="offset" />
          </mxGeometry>
        </mxCell>
        <mxCell id="bEocavp-VDXraB0x9Xeh-48" value="postProcessBeanDefinition((AbstractBeanDefinition) candidate, beanName);" style="whiteSpace=wrap;html=1;rounded=0;" parent="1" vertex="1">
          <mxGeometry x="-37.5" y="850" width="420" height="60" as="geometry" />
        </mxCell>
        <mxCell id="bEocavp-VDXraB0x9Xeh-55" value="" style="edgeStyle=orthogonalEdgeStyle;rounded=0;orthogonalLoop=1;jettySize=auto;html=1;" parent="1" source="bEocavp-VDXraB0x9Xeh-51" target="bEocavp-VDXraB0x9Xeh-54" edge="1">
          <mxGeometry relative="1" as="geometry" />
        </mxCell>
        <mxCell id="bEocavp-VDXraB0x9Xeh-51" value="AnnotationConfigUtils.processCommonDefinitionAnnotations((AnnotatedBeanDefinition) candidate);" style="whiteSpace=wrap;html=1;rounded=0;" parent="1" vertex="1">
          <mxGeometry x="-71.25" y="970" width="490" height="60" as="geometry" />
        </mxCell>
        <mxCell id="bEocavp-VDXraB0x9Xeh-59" value="" style="edgeStyle=orthogonalEdgeStyle;rounded=0;orthogonalLoop=1;jettySize=auto;html=1;" parent="1" source="bEocavp-VDXraB0x9Xeh-54" target="bEocavp-VDXraB0x9Xeh-58" edge="1">
          <mxGeometry relative="1" as="geometry" />
        </mxCell>
        <mxCell id="bEocavp-VDXraB0x9Xeh-54" value="&lt;span&gt;checkCandidate(beanName, candidate)&lt;br&gt;检查 beanDefinition 是否已经存在&lt;br&gt;&lt;/span&gt;" style="whiteSpace=wrap;html=1;rounded=0;" parent="1" vertex="1">
          <mxGeometry x="50.63" y="1080" width="246.25" height="70" as="geometry" />
        </mxCell>
        <mxCell id="bEocavp-VDXraB0x9Xeh-60" style="edgeStyle=orthogonalEdgeStyle;rounded=0;orthogonalLoop=1;jettySize=auto;html=1;exitX=0;exitY=0.5;exitDx=0;exitDy=0;entryX=0;entryY=0.5;entryDx=0;entryDy=0;" parent="1" source="bEocavp-VDXraB0x9Xeh-58" target="bEocavp-VDXraB0x9Xeh-42" edge="1">
          <mxGeometry relative="1" as="geometry">
            <mxPoint x="-170" y="750" as="targetPoint" />
            <Array as="points">
              <mxPoint x="-120" y="1243" />
              <mxPoint x="-120" y="630" />
            </Array>
          </mxGeometry>
        </mxCell>
        <mxCell id="bEocavp-VDXraB0x9Xeh-61" value="循环" style="edgeLabel;html=1;align=center;verticalAlign=middle;resizable=0;points=[];" parent="bEocavp-VDXraB0x9Xeh-60" vertex="1" connectable="0">
          <mxGeometry x="-0.814" y="-4" relative="1" as="geometry">
            <mxPoint y="4" as="offset" />
          </mxGeometry>
        </mxCell>
        <mxCell id="bEocavp-VDXraB0x9Xeh-58" value="registerBeanDefinition(definitionHolder, this.registry);&lt;br&gt;注册" style="whiteSpace=wrap;html=1;rounded=0;" parent="1" vertex="1">
          <mxGeometry x="23.75" y="1210" width="300" height="65" as="geometry" />
        </mxCell>
      </root>
    </mxGraphModel>
  </diagram>
</mxfile>
